G04 (created by PCBNEW (2013-05-31 BZR 4019)-stable) date 10/6/2013 10:31:21 PM*
%MOIN*%
G04 Gerber Fmt 3.4, Leading zero omitted, Abs format*
%FSLAX34Y34*%
G01*
G70*
G90*
G04 APERTURE LIST*
%ADD10C,0.00590551*%
%ADD11C,0.01125*%
G04 APERTURE END LIST*
G54D10*
G54D11*
X25797Y-33882D02*
X26036Y-33667D01*
X26254Y-33882D02*
X26197Y-33432D01*
X25893Y-33432D01*
X25819Y-33453D01*
X25784Y-33475D01*
X25751Y-33517D01*
X25759Y-33582D01*
X25802Y-33625D01*
X25843Y-33646D01*
X25922Y-33667D01*
X26227Y-33667D01*
X24981Y-33453D02*
X25055Y-33432D01*
X25169Y-33432D01*
X25286Y-33453D01*
X25367Y-33496D01*
X25411Y-33539D01*
X25460Y-33625D01*
X25468Y-33689D01*
X25440Y-33775D01*
X25408Y-33817D01*
X25337Y-33860D01*
X25225Y-33882D01*
X25149Y-33882D01*
X25032Y-33860D01*
X24991Y-33839D01*
X24972Y-33689D01*
X25125Y-33689D01*
X24197Y-33882D02*
X24436Y-33667D01*
X24654Y-33882D02*
X24597Y-33432D01*
X24293Y-33432D01*
X24219Y-33453D01*
X24184Y-33475D01*
X24151Y-33517D01*
X24159Y-33582D01*
X24202Y-33625D01*
X24243Y-33646D01*
X24322Y-33667D01*
X24627Y-33667D01*
G54D10*
X25000Y-28400D02*
X25000Y-24800D01*
X25000Y-24800D02*
X32600Y-24800D01*
X32600Y-24800D02*
X32600Y-28400D01*
X32600Y-28400D02*
X32600Y-31800D01*
X32600Y-31800D02*
X30200Y-33600D01*
X30200Y-33600D02*
X27400Y-33600D01*
X27400Y-33600D02*
X25000Y-31800D01*
X25000Y-31800D02*
X25000Y-28400D01*
X29624Y-31021D02*
X29643Y-31040D01*
X29699Y-31059D01*
X29737Y-31059D01*
X29793Y-31040D01*
X29831Y-31003D01*
X29849Y-30965D01*
X29868Y-30890D01*
X29868Y-30834D01*
X29849Y-30759D01*
X29831Y-30721D01*
X29793Y-30684D01*
X29737Y-30665D01*
X29699Y-30665D01*
X29643Y-30684D01*
X29624Y-30703D01*
X29231Y-31059D02*
X29362Y-30871D01*
X29456Y-31059D02*
X29456Y-30665D01*
X29306Y-30665D01*
X29268Y-30684D01*
X29249Y-30703D01*
X29231Y-30740D01*
X29231Y-30796D01*
X29249Y-30834D01*
X29268Y-30853D01*
X29306Y-30871D01*
X29456Y-30871D01*
X29081Y-30703D02*
X29062Y-30684D01*
X29024Y-30665D01*
X28931Y-30665D01*
X28893Y-30684D01*
X28874Y-30703D01*
X28856Y-30740D01*
X28856Y-30778D01*
X28874Y-30834D01*
X29099Y-31059D01*
X28856Y-31059D01*
X28612Y-30665D02*
X28575Y-30665D01*
X28537Y-30684D01*
X28518Y-30703D01*
X28500Y-30740D01*
X28481Y-30815D01*
X28481Y-30909D01*
X28500Y-30984D01*
X28518Y-31021D01*
X28537Y-31040D01*
X28575Y-31059D01*
X28612Y-31059D01*
X28650Y-31040D01*
X28668Y-31021D01*
X28687Y-30984D01*
X28706Y-30909D01*
X28706Y-30815D01*
X28687Y-30740D01*
X28668Y-30703D01*
X28650Y-30684D01*
X28612Y-30665D01*
X28350Y-30665D02*
X28106Y-30665D01*
X28237Y-30815D01*
X28181Y-30815D01*
X28143Y-30834D01*
X28125Y-30853D01*
X28106Y-30890D01*
X28106Y-30984D01*
X28125Y-31021D01*
X28143Y-31040D01*
X28181Y-31059D01*
X28293Y-31059D01*
X28331Y-31040D01*
X28350Y-31021D01*
X27956Y-30703D02*
X27937Y-30684D01*
X27900Y-30665D01*
X27806Y-30665D01*
X27768Y-30684D01*
X27750Y-30703D01*
X27731Y-30740D01*
X27731Y-30778D01*
X27750Y-30834D01*
X27975Y-31059D01*
X27731Y-31059D01*
M02*
