G04 (created by PCBNEW (2013-05-31 BZR 4019)-stable) date 10/6/2013 10:31:21 PM*
%MOIN*%
G04 Gerber Fmt 3.4, Leading zero omitted, Abs format*
%FSLAX34Y34*%
G01*
G70*
G90*
G04 APERTURE LIST*
%ADD10C,0.00590551*%
%ADD11C,0.011811*%
%ADD12R,0.045X0.02*%
%ADD13R,0.06X0.08*%
%ADD14R,0.08X0.06*%
%ADD15C,0.055*%
%ADD16R,0.0629X0.0709*%
%ADD17C,0.08*%
G04 APERTURE END LIST*
G54D10*
G54D11*
X25520Y-25624D02*
X25492Y-25705D01*
X25464Y-25729D01*
X25407Y-25751D01*
X25323Y-25740D01*
X25267Y-25705D01*
X25239Y-25673D01*
X25210Y-25613D01*
X25210Y-25389D01*
X25801Y-25462D01*
X25801Y-25659D01*
X25773Y-25712D01*
X25745Y-25737D01*
X25689Y-25758D01*
X25632Y-25751D01*
X25576Y-25715D01*
X25548Y-25684D01*
X25520Y-25624D01*
X25520Y-25427D01*
X25210Y-26063D02*
X25239Y-26011D01*
X25295Y-25990D01*
X25801Y-26053D01*
X25210Y-26288D02*
X25604Y-26338D01*
X25801Y-26362D02*
X25773Y-26331D01*
X25745Y-26355D01*
X25773Y-26387D01*
X25801Y-26362D01*
X25745Y-26355D01*
X25604Y-26619D02*
X25210Y-26570D01*
X25548Y-26612D02*
X25576Y-26643D01*
X25604Y-26703D01*
X25604Y-26788D01*
X25576Y-26840D01*
X25520Y-26861D01*
X25210Y-26823D01*
X25210Y-27104D02*
X25801Y-27178D01*
X25435Y-27188D02*
X25210Y-27329D01*
X25604Y-27378D02*
X25379Y-27125D01*
X25604Y-27575D02*
X25210Y-27666D01*
X25604Y-27856D02*
X25210Y-27666D01*
X25070Y-27593D01*
X25042Y-27561D01*
X25014Y-27501D01*
X25320Y-24795D02*
X25545Y-24795D01*
X25404Y-24598D02*
X25404Y-25104D01*
X25432Y-25160D01*
X25489Y-25189D01*
X25545Y-25189D01*
X25826Y-25189D02*
X25770Y-25160D01*
X25742Y-25132D01*
X25714Y-25076D01*
X25714Y-24907D01*
X25742Y-24851D01*
X25770Y-24823D01*
X25826Y-24795D01*
X25910Y-24795D01*
X25967Y-24823D01*
X25995Y-24851D01*
X26023Y-24907D01*
X26023Y-25076D01*
X25995Y-25132D01*
X25967Y-25160D01*
X25910Y-25189D01*
X25826Y-25189D01*
X24276Y-27200D02*
X24248Y-27256D01*
X24248Y-27340D01*
X24276Y-27425D01*
X24332Y-27481D01*
X24389Y-27509D01*
X24501Y-27537D01*
X24585Y-27537D01*
X24698Y-27509D01*
X24754Y-27481D01*
X24810Y-27425D01*
X24839Y-27340D01*
X24839Y-27284D01*
X24810Y-27200D01*
X24782Y-27171D01*
X24585Y-27171D01*
X24585Y-27284D01*
X24810Y-26693D02*
X24839Y-26750D01*
X24839Y-26862D01*
X24810Y-26918D01*
X24754Y-26946D01*
X24529Y-26946D01*
X24473Y-26918D01*
X24445Y-26862D01*
X24445Y-26750D01*
X24473Y-26693D01*
X24529Y-26665D01*
X24585Y-26665D01*
X24642Y-26946D01*
X24445Y-26497D02*
X24445Y-26272D01*
X24248Y-26412D02*
X24754Y-26412D01*
X24810Y-26384D01*
X24839Y-26328D01*
X24839Y-26272D01*
X24445Y-26159D02*
X24445Y-25934D01*
X24248Y-26075D02*
X24754Y-26075D01*
X24810Y-26047D01*
X24839Y-25990D01*
X24839Y-25934D01*
X24839Y-25737D02*
X24445Y-25737D01*
X24248Y-25737D02*
X24276Y-25765D01*
X24304Y-25737D01*
X24276Y-25709D01*
X24248Y-25737D01*
X24304Y-25737D01*
X24445Y-25456D02*
X24839Y-25456D01*
X24501Y-25456D02*
X24473Y-25428D01*
X24445Y-25372D01*
X24445Y-25287D01*
X24473Y-25231D01*
X24529Y-25203D01*
X24839Y-25203D01*
X24445Y-24669D02*
X24923Y-24669D01*
X24979Y-24697D01*
X25007Y-24725D01*
X25035Y-24781D01*
X25035Y-24865D01*
X25007Y-24922D01*
X24810Y-24669D02*
X24839Y-24725D01*
X24839Y-24837D01*
X24810Y-24894D01*
X24782Y-24922D01*
X24726Y-24950D01*
X24557Y-24950D01*
X24501Y-24922D01*
X24473Y-24894D01*
X24445Y-24837D01*
X24445Y-24725D01*
X24473Y-24669D01*
G54D12*
X30050Y-28650D03*
X30050Y-29150D03*
X30050Y-29650D03*
X30050Y-30150D03*
X27550Y-30150D03*
X27550Y-29650D03*
X27550Y-29150D03*
X27550Y-28650D03*
G54D13*
X28700Y-31150D03*
X30000Y-31150D03*
X29650Y-26850D03*
X28350Y-26850D03*
G54D14*
X25600Y-30550D03*
X25600Y-31850D03*
G54D15*
X33050Y-26350D03*
X33050Y-25350D03*
G54D16*
X28891Y-32500D03*
X30009Y-32500D03*
G54D17*
X24550Y-28400D03*
X33050Y-28400D03*
M02*
