G04 (created by PCBNEW (2013-05-31 BZR 4019)-stable) date 10/6/2013 10:31:21 PM*
%MOIN*%
G04 Gerber Fmt 3.4, Leading zero omitted, Abs format*
%FSLAX34Y34*%
G01*
G70*
G90*
G04 APERTURE LIST*
%ADD10C,0.00590551*%
%ADD11C,0.005*%
%ADD12C,0.015*%
%ADD13C,0.0026*%
%ADD14C,0.004*%
%ADD15C,0.008*%
%ADD16C,0.0035*%
G04 APERTURE END LIST*
G54D10*
G54D11*
X29700Y-28400D02*
X29700Y-30400D01*
X29700Y-30400D02*
X27900Y-30400D01*
X27900Y-30400D02*
X27900Y-28400D01*
X27900Y-28400D02*
X29700Y-28400D01*
X29100Y-28400D02*
X29100Y-28600D01*
X29100Y-28600D02*
X28600Y-28600D01*
X28600Y-28600D02*
X28600Y-28400D01*
X28350Y-30700D02*
X28350Y-31600D01*
X28350Y-31600D02*
X29000Y-31600D01*
X29700Y-30700D02*
X30350Y-30700D01*
X30350Y-30700D02*
X30350Y-31600D01*
X30350Y-31600D02*
X29700Y-31600D01*
X29000Y-30700D02*
X28350Y-30700D01*
X30000Y-27300D02*
X30000Y-26400D01*
X30000Y-26400D02*
X29350Y-26400D01*
X28650Y-27300D02*
X28000Y-27300D01*
X28000Y-27300D02*
X28000Y-26400D01*
X28000Y-26400D02*
X28650Y-26400D01*
X29350Y-27300D02*
X30000Y-27300D01*
X26050Y-30200D02*
X25150Y-30200D01*
X25150Y-30200D02*
X25150Y-30850D01*
X26050Y-31550D02*
X26050Y-32200D01*
X26050Y-32200D02*
X25150Y-32200D01*
X25150Y-32200D02*
X25150Y-31550D01*
X26050Y-30850D02*
X26050Y-30200D01*
G54D12*
X33050Y-26350D02*
X33050Y-25350D01*
X33609Y-26350D02*
G75*
G03X33609Y-26350I-559J0D01*
G74*
G01*
G54D13*
X29411Y-32539D02*
X29489Y-32539D01*
X29489Y-32539D02*
X29489Y-32461D01*
X29411Y-32461D02*
X29489Y-32461D01*
X29411Y-32539D02*
X29411Y-32461D01*
X29627Y-32775D02*
X29764Y-32775D01*
X29764Y-32775D02*
X29764Y-32677D01*
X29627Y-32677D02*
X29764Y-32677D01*
X29627Y-32775D02*
X29627Y-32677D01*
X29764Y-32775D02*
X29804Y-32775D01*
X29804Y-32775D02*
X29804Y-32304D01*
X29764Y-32304D02*
X29804Y-32304D01*
X29764Y-32775D02*
X29764Y-32304D01*
X29764Y-32284D02*
X29804Y-32284D01*
X29804Y-32284D02*
X29804Y-32225D01*
X29764Y-32225D02*
X29804Y-32225D01*
X29764Y-32284D02*
X29764Y-32225D01*
X29096Y-32775D02*
X29136Y-32775D01*
X29136Y-32775D02*
X29136Y-32304D01*
X29096Y-32304D02*
X29136Y-32304D01*
X29096Y-32775D02*
X29096Y-32304D01*
X29096Y-32284D02*
X29136Y-32284D01*
X29136Y-32284D02*
X29136Y-32225D01*
X29096Y-32225D02*
X29136Y-32225D01*
X29096Y-32284D02*
X29096Y-32225D01*
X29627Y-32775D02*
X29686Y-32775D01*
X29686Y-32775D02*
X29686Y-32677D01*
X29627Y-32677D02*
X29686Y-32677D01*
X29627Y-32775D02*
X29627Y-32677D01*
G54D14*
X30060Y-32795D02*
X28840Y-32795D01*
X28840Y-32795D02*
X28840Y-32205D01*
X28840Y-32205D02*
X30060Y-32205D01*
X30060Y-32205D02*
X30060Y-32795D01*
X29234Y-32696D02*
G75*
G03X29666Y-32695I215J196D01*
G74*
G01*
X29234Y-32303D02*
G75*
G03X29233Y-32695I215J-196D01*
G74*
G01*
X29665Y-32303D02*
G75*
G03X29233Y-32304I-215J-196D01*
G74*
G01*
X29665Y-32696D02*
G75*
G03X29666Y-32304I-215J196D01*
G74*
G01*
G54D11*
X27195Y-27732D02*
X27195Y-28096D01*
X27214Y-28139D01*
X27233Y-28160D01*
X27271Y-28182D01*
X27347Y-28182D01*
X27385Y-28160D01*
X27404Y-28139D01*
X27423Y-28096D01*
X27423Y-27732D01*
X27823Y-28182D02*
X27595Y-28182D01*
X27709Y-28182D02*
X27709Y-27732D01*
X27671Y-27796D01*
X27633Y-27839D01*
X27595Y-27860D01*
X29295Y-27761D02*
X29561Y-27761D01*
X29390Y-28161D01*
X29904Y-27761D02*
X29714Y-27761D01*
X29695Y-27952D01*
X29714Y-27933D01*
X29752Y-27914D01*
X29847Y-27914D01*
X29885Y-27933D01*
X29904Y-27952D01*
X29923Y-27990D01*
X29923Y-28085D01*
X29904Y-28123D01*
X29885Y-28142D01*
X29847Y-28161D01*
X29752Y-28161D01*
X29714Y-28142D01*
X29695Y-28123D01*
X30285Y-27761D02*
X30095Y-27761D01*
X30076Y-27952D01*
X30095Y-27933D01*
X30133Y-27914D01*
X30228Y-27914D01*
X30266Y-27933D01*
X30285Y-27952D01*
X30304Y-27990D01*
X30304Y-28085D01*
X30285Y-28123D01*
X30266Y-28142D01*
X30228Y-28161D01*
X30133Y-28161D01*
X30095Y-28142D01*
X30076Y-28123D01*
X30666Y-27761D02*
X30476Y-27761D01*
X30457Y-27952D01*
X30476Y-27933D01*
X30514Y-27914D01*
X30609Y-27914D01*
X30647Y-27933D01*
X30666Y-27952D01*
X30685Y-27990D01*
X30685Y-28085D01*
X30666Y-28123D01*
X30647Y-28142D01*
X30609Y-28161D01*
X30514Y-28161D01*
X30476Y-28142D01*
X30457Y-28123D01*
X27900Y-31242D02*
X27885Y-31257D01*
X27842Y-31271D01*
X27814Y-31271D01*
X27771Y-31257D01*
X27742Y-31228D01*
X27728Y-31200D01*
X27714Y-31142D01*
X27714Y-31100D01*
X27728Y-31042D01*
X27742Y-31014D01*
X27771Y-30985D01*
X27814Y-30971D01*
X27842Y-30971D01*
X27885Y-30985D01*
X27900Y-31000D01*
X28185Y-31271D02*
X28014Y-31271D01*
X28100Y-31271D02*
X28100Y-30971D01*
X28071Y-31014D01*
X28042Y-31042D01*
X28014Y-31057D01*
X28950Y-26171D02*
X28850Y-26028D01*
X28778Y-26171D02*
X28778Y-25871D01*
X28892Y-25871D01*
X28921Y-25885D01*
X28935Y-25900D01*
X28950Y-25928D01*
X28950Y-25971D01*
X28935Y-26000D01*
X28921Y-26014D01*
X28892Y-26028D01*
X28778Y-26028D01*
X29235Y-26171D02*
X29064Y-26171D01*
X29150Y-26171D02*
X29150Y-25871D01*
X29121Y-25914D01*
X29092Y-25942D01*
X29064Y-25957D01*
X25500Y-29921D02*
X25400Y-29778D01*
X25328Y-29921D02*
X25328Y-29621D01*
X25442Y-29621D01*
X25471Y-29635D01*
X25485Y-29650D01*
X25500Y-29678D01*
X25500Y-29721D01*
X25485Y-29750D01*
X25471Y-29764D01*
X25442Y-29778D01*
X25328Y-29778D01*
X25614Y-29650D02*
X25628Y-29635D01*
X25657Y-29621D01*
X25728Y-29621D01*
X25757Y-29635D01*
X25771Y-29650D01*
X25785Y-29678D01*
X25785Y-29707D01*
X25771Y-29750D01*
X25600Y-29921D01*
X25785Y-29921D01*
G54D15*
X31622Y-26504D02*
X32172Y-26338D01*
X31622Y-26171D01*
X32172Y-25719D02*
X31910Y-25885D01*
X32172Y-26004D02*
X31622Y-26004D01*
X31622Y-25814D01*
X31648Y-25766D01*
X31675Y-25742D01*
X31727Y-25719D01*
X31805Y-25719D01*
X31858Y-25742D01*
X31884Y-25766D01*
X31910Y-25814D01*
X31910Y-26004D01*
X32172Y-25242D02*
X32172Y-25528D01*
X32172Y-25385D02*
X31622Y-25385D01*
X31701Y-25433D01*
X31753Y-25480D01*
X31779Y-25528D01*
G54D16*
X27878Y-32621D02*
X27878Y-32321D01*
X27950Y-32321D01*
X27992Y-32335D01*
X28021Y-32364D01*
X28035Y-32392D01*
X28050Y-32450D01*
X28050Y-32492D01*
X28035Y-32550D01*
X28021Y-32578D01*
X27992Y-32607D01*
X27950Y-32621D01*
X27878Y-32621D01*
X28335Y-32621D02*
X28164Y-32621D01*
X28250Y-32621D02*
X28250Y-32321D01*
X28221Y-32364D01*
X28192Y-32392D01*
X28164Y-32407D01*
M02*
